<?xml version="1.0" encoding="UTF-8"?>
<!DOCTYPE svg PUBLIC "-//W3C//DTD SVG 1.1//EN" "http://www.w3.org/Graphics/SVG/1.1/DTD/svg11.dtd">
<svg xmlns="http://www.w3.org/2000/svg" version="1.1" width="205px" height="120px" style="shape-rendering:geometricPrecision; text-rendering:geometricPrecision; image-rendering:optimizeQuality; fill-rule:evenodd; clip-rule:evenodd" xmlns:xlink="http://www.w3.org/1999/xlink">
<g><path style="opacity:0.477" fill="#3682fe" d="M 178.5,-0.5 C 181.167,-0.5 183.833,-0.5 186.5,-0.5C 192.653,3.77476 196.32,9.77476 197.5,17.5C 193.128,18.9449 189.128,20.9449 185.5,23.5C 184.883,23.3893 184.383,23.056 184,22.5C 179.224,24.5933 174.391,26.5933 169.5,28.5C 169.094,27.4425 169.094,26.1092 169.5,24.5C 171.154,20.5213 172.821,16.5213 174.5,12.5C 167.595,12.4961 160.595,12.3294 153.5,12C 150.007,10.5219 149.674,8.52185 152.5,6C 161.245,3.62374 169.912,1.45707 178.5,-0.5 Z"/></g>
<g><path style="opacity:0.482" fill="#3492fd" d="M 197.5,17.5 C 199.658,23.9804 201.991,30.3137 204.5,36.5C 204.5,39.1667 204.5,41.8333 204.5,44.5C 200.256,48.3553 196.09,48.3553 192,44.5C 190.275,37.2418 188.109,30.2418 185.5,23.5C 189.128,20.9449 193.128,18.9449 197.5,17.5 Z"/></g>
<g><path style="opacity:0.486" fill="#367fff" d="M 102.5,38.5 C 102.414,39.4959 102.748,40.3292 103.5,41C 98.8413,43.1579 94.1746,44.9912 89.5,46.5C 77.7692,40.9506 67.6026,42.9506 59,52.5C 56.9131,55.0703 55.0798,57.737 53.5,60.5C 48.6122,62.0937 43.4456,64.0937 38,66.5C 37.5172,65.552 37.3505,64.552 37.5,63.5C 49.6521,30.2532 71.3188,21.9198 102.5,38.5 Z"/></g>
<g><path style="opacity:0.489" fill="#3592fd" d="M 185.5,23.5 C 179.309,39.7402 168.976,52.5736 154.5,62C 141.272,68.1494 128.272,67.9827 115.5,61.5C 121.745,59.0543 128.078,56.5543 134.5,54C 133.263,53.7679 132.263,53.2679 131.5,52.5C 141.88,52.5598 150.714,48.8931 158,41.5C 162.352,36.1133 166.185,30.4466 169.5,24.5C 169.094,26.1092 169.094,27.4425 169.5,28.5C 174.391,26.5933 179.224,24.5933 184,22.5C 184.383,23.056 184.883,23.3893 185.5,23.5 Z"/></g>
<g><path style="opacity:0.479" fill="#358cfd" d="M 102.5,38.5 C 111.294,44.9564 120.96,49.6231 131.5,52.5C 132.263,53.2679 133.263,53.7679 134.5,54C 128.078,56.5543 121.745,59.0543 115.5,61.5C 106.499,57.0019 97.832,52.0019 89.5,46.5C 94.1746,44.9912 98.8413,43.1579 103.5,41C 102.748,40.3292 102.414,39.4959 102.5,38.5 Z"/></g>
<g><path style="opacity:0.483" fill="#358cfd" d="M 53.5,60.5 C 49.2254,69.3821 45.2254,78.3821 41.5,87.5C 39.7024,89.1122 37.7024,90.6122 35.5,92C 31.3904,93.2221 27.3904,94.7221 23.5,96.5C 22.8165,96.1373 22.1499,95.8039 21.5,95.5C 27.4097,85.0926 32.7431,74.4259 37.5,63.5C 37.3505,64.552 37.5172,65.552 38,66.5C 43.4456,64.0937 48.6122,62.0937 53.5,60.5 Z"/></g>
<g><path style="opacity:0.484" fill="#3595fd" d="M 41.5,87.5 C 36.9179,98.9104 29.5846,108.077 19.5,115C 15.1544,116.836 10.821,118.336 6.5,119.5C 4.16667,119.5 1.83333,119.5 -0.5,119.5C -0.5,115.5 -0.5,111.5 -0.5,107.5C 8.63667,106.602 15.97,102.602 21.5,95.5C 22.1499,95.8039 22.8165,96.1373 23.5,96.5C 27.3904,94.7221 31.3904,93.2221 35.5,92C 37.7024,90.6122 39.7024,89.1122 41.5,87.5 Z"/></g>
</svg>
