<svg width="205" height="120" viewBox="0 0 205 120" fill="none" xmlns="http://www.w3.org/2000/svg">
<path opacity="0.5" d="M86.9003 71.3368C75.2694 65.1181 63.6371 64.3321 52.4333 72.3666C40.3059 81.0706 34.2399 95.3313 28.6198 108.7C30.5658 108.45 32.4776 108.081 33.9361 107.984C39.4625 107.646 44.9388 107.72 50.467 107.873C53.16 107.95 54.8162 112.061 51.6696 113C45.0188 114.969 38.4046 116.662 31.5811 117.921C26.3976 118.871 20.4854 120.745 15.667 117.73C10.9912 114.804 9.72832 108.804 8.07468 103.927C5.51028 96.347 2.94582 88.7676 0.381389 81.1881C-2.30454 73.2615 10.2301 68.6865 12.4085 76.5991C13.8322 81.7612 15.2559 86.9233 16.6796 92.0854C17.3 94.3407 17.9203 96.5959 18.5502 98.8476C28.0345 77.8944 41.6777 55.3652 66.8142 53.3159C87.739 51.6166 101.357 68.4223 119.569 75.0371C145.248 84.3663 155.017 51.5986 162.851 34.1604C167.504 23.8056 173.559 12.8936 183.293 6.50169C193.269 -0.0588031 204.976 -0.678573 216.244 2.58556C229.821 6.52087 241.397 15.3725 255.043 18.9753C266.602 22.0299 283.422 19.4157 285.928 5.26741C286.55 1.7184 291.432 2.75227 291.291 6.16126C290.911 15.6949 284.329 22.8513 275.937 26.6655C265.701 31.3141 254.39 29.4544 244.205 25.679C232.237 21.2391 221.108 13.7032 208.225 12.0717C194.709 10.3541 185.107 18.0072 178.778 29.3187C167.685 49.1477 164.075 76.8549 140.666 86.836C120.485 95.4649 103.591 80.259 86.9003 71.3368Z" fill="url(#paint0_linear_6_1841)"/>
<defs>
<linearGradient id="paint0_linear_6_1841" x1="160.367" y1="79.3335" x2="138.439" y2="21.862" gradientUnits="userSpaceOnUse">
<stop stop-color="#3679FF"/>
<stop offset="1" stop-color="#3399FE"/>
</linearGradient>
</defs>
</svg>
