<svg width="44" height="44" viewBox="0 0 44 44" fill="none" xmlns="http://www.w3.org/2000/svg">
<path d="M26.9678 12.0646V22.7097H31.2259H35.484V12.0646V1.41939H31.2259H26.9678V12.0646ZM30.5162 4.96778V5.67746H29.8065H29.0969V4.96778V4.2581H29.8065H30.5162V4.96778ZM33.3549 4.96778V5.67746H32.6453H31.9356V4.96778V4.2581H32.6453H33.3549V4.96778ZM30.5162 8.51617V9.22585H29.8065H29.0969V8.51617V7.80649H29.8065H30.5162V8.51617ZM33.3549 8.51617V9.22585H32.6453H31.9356V8.51617V7.80649H32.6453H33.3549V8.51617ZM30.5162 12.0646V12.7742H29.8065H29.0969V12.0646V11.3549H29.8065H30.5162V12.0646ZM33.3549 12.0646V12.7742H32.6453H31.9356V12.0646V11.3549H32.6453H33.3549V12.0646Z" fill="#3679FF"/>
<path d="M10.6279 3.91214L8.5166 5.68633V14.1936V22.7097H12.7747H17.0327V14.1936V5.68633L14.9037 3.90326C13.7327 2.92746 12.7658 2.12907 12.7569 2.13794C12.7392 2.13794 11.7811 2.93633 10.6279 3.91214ZM14.9037 7.80649V8.51617H12.7747H10.6456V7.80649V7.09681H12.7747H14.9037V7.80649ZM14.9037 11.3549V12.0646H12.7747H10.6456V11.3549V10.6452H12.7747H14.9037V11.3549Z" fill="#3679FF"/>
<path d="M18.4512 15.9678V22.7097H21.9996H25.5479V15.9678V9.22585H21.9996H18.4512V15.9678Z" fill="#3679FF"/>
<path d="M1.41895 17.3871V22.7097H4.25765H7.09636V17.3871V12.0646H4.25765H1.41895V17.3871Z" fill="#3679FF"/>
<path d="M36.9034 17.742V22.7097H39.7422H42.5809V17.742V12.7742H39.7422H36.9034V17.742Z" fill="#3679FF"/>
<path d="M0 24.8387V25.5483H22H44V24.8387V24.129H22H0V24.8387Z" fill="#3679FF"/>
<path d="M1.70374 29.1589C2.09406 30.3742 2.48438 31.4298 2.56422 31.5274C2.84809 31.8468 3.03438 31.8468 4.0368 31.5274C5.06583 31.1992 5.38519 31.1637 5.60696 31.3323C5.6868 31.3944 5.93519 31.7669 6.16583 32.1573C6.69809 33.071 7.26583 33.8605 7.94003 34.6411C8.63196 35.4395 8.78277 35.6613 8.78277 35.8831C8.78277 35.9806 8.48116 36.4774 8.11745 36.9831C7.74486 37.5065 7.45212 37.9944 7.45212 38.1097C7.45212 38.225 7.55857 38.4379 7.70051 38.5798C7.96664 38.8637 11.0715 41.1169 11.3997 41.2677C11.7723 41.4363 12.065 41.2145 12.7481 40.2831C13.5376 39.1831 13.5908 39.1653 14.682 39.6444C15.6578 40.0613 16.9529 40.4782 17.9908 40.7089C19.1086 40.9661 19.1618 41.0371 19.1618 42.4565C19.1618 43.5121 19.1707 43.5742 19.3836 43.7782L19.5965 44H22.0005H24.4045L24.6174 43.7782C24.8303 43.5742 24.8392 43.5121 24.8392 42.4565C24.8392 41.0282 24.8836 40.9661 26.0368 40.7089C27.0481 40.496 27.9973 40.1855 29.2037 39.6798C30.4279 39.1742 30.4545 39.1831 31.2529 40.2831C31.9271 41.2056 32.2021 41.4097 32.557 41.2766C32.8941 41.1435 36.2828 38.6685 36.4336 38.4379C36.6287 38.1363 36.5223 37.8613 35.8303 36.9121C35.4933 36.4508 35.2183 35.9895 35.2183 35.8831C35.2183 35.6613 35.3691 35.4395 36.061 34.6411C36.6908 33.9137 37.4449 32.8492 37.9505 31.971C38.465 31.0839 38.5271 31.075 39.9642 31.5274C40.9666 31.8468 41.1529 31.8468 41.4368 31.5274C41.5166 31.4298 41.907 30.3742 42.2973 29.1589L42.9981 26.9677H39.2634H35.5199L35.3602 27.4734C34.9344 28.8306 33.9674 30.5073 32.8231 31.8734C30.765 34.3306 27.9086 35.9984 24.6263 36.6548C23.3312 36.9121 20.7852 36.9387 19.561 36.6992C16.7933 36.1492 14.5578 35.0669 12.5352 33.275C10.8408 31.7758 9.25293 29.4161 8.64083 27.4734L8.48116 26.9677H4.73761H1.00293L1.70374 29.1589Z" fill="#3679FF"/>
</svg>
