<svg width="20" height="20" viewBox="0 0 20 20" fill="none" xmlns="http://www.w3.org/2000/svg">
<path d="M17.4778 14.7473C17.4778 15.0173 17.4178 15.2948 17.2903 15.5648C17.1628 15.8348 16.9978 16.0898 16.7803 16.3298C16.4128 16.7348 16.0078 17.0273 15.5503 17.2148C15.1003 17.4023 14.6128 17.4998 14.0878 17.4998C13.3228 17.4998 12.5053 17.3198 11.6428 16.9523C10.7803 16.5848 9.91781 16.0898 9.06281 15.4673C8.20031 14.8373 7.3828 14.1398 6.60281 13.3673C5.83031 12.5873 5.13281 11.7698 4.51031 10.9148C3.89531 10.0598 3.40031 9.20476 3.04031 8.35726C2.68031 7.50226 2.50031 6.68476 2.50031 5.90476C2.50031 5.39476 2.59031 4.90726 2.77031 4.45726C2.95031 3.99976 3.23531 3.57976 3.63281 3.20476C4.11281 2.73226 4.63781 2.49976 5.19281 2.49976C5.40281 2.49976 5.61281 2.54476 5.80031 2.63476C5.99531 2.72476 6.16781 2.85976 6.30281 3.05476L8.04281 5.50726C8.17781 5.69476 8.27531 5.86726 8.34281 6.03226C8.41031 6.18976 8.44781 6.34726 8.44781 6.48976C8.44781 6.66976 8.39531 6.84976 8.29031 7.02226C8.19281 7.19476 8.05031 7.37476 7.87031 7.55476L7.3003 8.14726C7.2178 8.22976 7.18031 8.32726 7.18031 8.44726C7.18031 8.50726 7.18781 8.55976 7.20281 8.61976C7.22531 8.67976 7.24781 8.72476 7.26281 8.76976C7.39781 9.01726 7.6303 9.33976 7.9603 9.72976C8.2978 10.1198 8.6578 10.5173 9.0478 10.9148C9.4528 11.3123 9.8428 11.6798 10.2403 12.0173C10.6303 12.3473 10.9528 12.5723 11.2078 12.7073C11.2453 12.7223 11.2903 12.7448 11.3428 12.7673C11.4028 12.7898 11.4628 12.7973 11.5303 12.7973C11.6578 12.7973 11.7553 12.7523 11.8378 12.6698L12.4078 12.1073C12.5953 11.9198 12.7753 11.7773 12.9478 11.6873C13.1203 11.5823 13.2928 11.5298 13.4803 11.5298C13.6228 11.5298 13.7728 11.5598 13.9378 11.6273C14.1028 11.6948 14.2753 11.7923 14.4628 11.9198L16.9453 13.6823C17.1403 13.8173 17.2753 13.9748 17.3578 14.1623C17.4328 14.3498 17.4778 14.5373 17.4778 14.7473Z" stroke="#000610" stroke-miterlimit="10"/>
</svg>
