<svg width="56" height="56" viewBox="0 0 56 56" fill="none" xmlns="http://www.w3.org/2000/svg">
<path d="M7.47921 3.34065C6.9473 3.57417 6.40242 4.23582 6.3116 4.75476C6.27268 4.98828 6.24674 7.68677 6.27268 10.7745C6.3116 16.2233 6.32458 16.379 6.58405 16.7423C7.53111 18.0137 9.11387 18.0137 10.0609 16.7423C10.3204 16.392 10.3334 16.2103 10.3723 11.8513L10.4112 7.32351L14.939 7.28459C19.298 7.24567 19.4797 7.23269 19.83 6.97322C21.1014 6.02616 21.1014 4.4434 19.83 3.49633C19.4667 3.23687 19.324 3.22389 13.6676 3.19794C9.04901 3.172 7.79058 3.19794 7.47921 3.34065Z" fill="black"/>
<path d="M26.2259 3.30176C26.0443 3.3796 25.7589 3.56123 25.6032 3.71691C24.5913 4.651 24.721 6.117 25.8756 6.97325C26.2389 7.23272 26.3816 7.2457 31.1558 7.2457C35.9301 7.2457 36.0728 7.23272 36.436 6.97325C37.7074 6.02619 37.7074 4.44343 36.436 3.49636C36.0728 3.23689 35.9171 3.22392 31.3115 3.19797C28.3276 3.185 26.4335 3.22392 26.2259 3.30176Z" fill="black"/>
<path d="M42.832 3.30173C42.6503 3.37957 42.3649 3.5612 42.2092 3.71688C41.1973 4.65097 41.327 6.11698 42.4817 6.97322C42.832 7.23269 43.0136 7.24567 47.3727 7.28459L51.9004 7.32351L51.9393 11.8513C51.9783 16.2103 51.9912 16.392 52.2507 16.7423C53.1978 18.0137 54.7805 18.0137 55.7276 16.7423C56 16.379 56 16.2622 56 10.4242C56 4.61205 56 4.46935 55.7276 4.11906C55.5849 3.92446 55.2995 3.63904 55.1049 3.49633C54.7546 3.23687 54.5859 3.22389 48.9554 3.19794C45.2839 3.18497 43.0395 3.22389 42.832 3.30173Z" fill="black"/>
<path d="M10.9561 22.0355C8.56898 22.6841 6.71377 24.7339 6.33754 27.147L6.19483 28.0162L5.32561 28.1589C2.8866 28.5352 0.849762 30.4033 0.214062 32.8294C-0.0713541 33.9321 -0.0713541 47.1132 0.214062 48.2159C0.512452 49.3706 1.01842 50.2398 1.88764 51.109C2.76984 51.9912 3.60014 52.4712 4.78073 52.7696C5.93536 53.068 31.4801 53.081 32.6218 52.7826C33.7764 52.4842 34.6457 51.9782 35.5149 51.109C36.3841 50.2398 36.8901 49.3706 37.1885 48.2159C37.4739 47.1132 37.4739 33.9321 37.1885 32.8294C36.5528 30.4033 34.5289 28.5481 32.1029 28.1589L31.2077 28.0162L31.065 27.147C30.6888 24.708 28.8206 22.6712 26.4205 22.0355C25.3307 21.763 11.994 21.763 10.9561 22.0355ZM19.8818 32.3494C22.3598 32.8164 24.4355 34.996 24.8377 37.5258C25.4604 41.5995 21.8019 45.245 17.7542 44.5704C14.3941 43.9995 12.0588 40.834 12.5648 37.5388C12.7724 36.2155 13.3562 35.0738 14.3162 34.1138C15.8601 32.5699 17.8061 31.9602 19.8818 32.3494Z" fill="black"/>
<path d="M52.9515 22.1262C52.718 22.2948 52.3937 22.5932 52.251 22.7878C51.9915 23.1511 51.9785 23.2938 51.9785 28.068C51.9785 32.8422 51.9915 32.985 52.251 33.3482C53.198 34.6196 54.7808 34.6196 55.7278 33.3482C55.9873 32.985 56.0003 32.8422 56.0003 28.068C56.0003 23.2938 55.9873 23.1511 55.7278 22.7878C55.2738 22.1651 54.664 21.8407 53.9894 21.8407C53.5743 21.8407 53.2499 21.9316 52.9515 22.1262Z" fill="black"/>
<path d="M52.9512 38.7323C52.7177 38.901 52.3933 39.1994 52.2506 39.394C51.9912 39.7442 51.9782 39.9259 51.9393 44.285L51.9003 48.8127L47.3726 48.8516C43.0135 48.8905 42.8319 48.9035 42.4816 49.163C41.2102 50.1101 41.2102 51.6928 42.4816 52.6399C42.8449 52.9123 42.9616 52.9123 48.7997 52.9123C54.6118 52.9123 54.7545 52.9123 55.1048 52.6399C55.2994 52.4972 55.5848 52.2118 55.7275 52.0172C56 51.6669 56 51.5242 56 45.712C56 39.874 56 39.7572 55.7275 39.394C55.2734 38.7712 54.6637 38.4469 53.9891 38.4469C53.5739 38.4469 53.2496 38.5377 52.9512 38.7323Z" fill="black"/>
</svg>
