<svg width="44" height="44" viewBox="0 0 44 44" fill="none" xmlns="http://www.w3.org/2000/svg">
<path d="M2.68983 2.56632C1.40937 2.91866 0.455467 3.86397 0.120312 5.13584C0.0343749 5.4624 0 6.31318 0 8.59911V11.6327H21.9999H43.9998V8.59911C43.9998 5.41943 43.9655 5.10146 43.5873 4.3624C43.3295 3.84678 42.6936 3.19366 42.2209 2.92725C41.2498 2.40304 42.5647 2.43741 21.957 2.446C6.0242 2.446 3.06796 2.46319 2.68983 2.56632ZM5.75779 5.91787C6.77185 6.44208 6.59138 7.96317 5.48279 8.26395C4.3828 8.56473 3.45467 7.28427 4.08202 6.33037C4.40858 5.84052 5.20779 5.63427 5.75779 5.91787ZM33.9452 5.97802C35.0194 6.71708 34.4952 8.32411 33.1889 8.29833C32.2866 8.28973 31.7022 7.30146 32.1233 6.47646C32.4499 5.81474 33.3436 5.57412 33.9452 5.97802ZM39.1014 5.97802C40.1756 6.71708 39.6514 8.32411 38.3452 8.29833C37.4428 8.28973 36.8585 7.30146 37.2796 6.47646C37.6061 5.81474 38.4999 5.57412 39.1014 5.97802Z" fill="#3679FF"/>
<path d="M7.15398e-05 27.0326C7.15398e-05 40.963 -0.0171159 40.2755 0.48132 41.1951C0.747725 41.6849 1.40085 42.3209 1.90788 42.5787C2.67272 42.974 3.01647 42.9998 6.76333 42.9998H10.3125V28.6053V14.2108H5.1563H7.15398e-05V27.0326ZM5.61177 21.6358C6.18755 21.8678 6.53989 22.5381 6.40239 23.1397C6.31645 23.5264 5.86099 23.9819 5.47427 24.0506C4.96724 24.1451 4.55474 24.0248 4.24537 23.6983C3.78131 23.2084 3.75553 22.5381 4.18521 22.0225C4.58052 21.5498 5.08755 21.4123 5.61177 21.6358ZM5.61177 26.792C6.18755 27.024 6.53989 27.6943 6.40239 28.2959C6.31645 28.6826 5.86099 29.1381 5.47427 29.2068C4.96724 29.3014 4.55474 29.1811 4.24537 28.8545C3.78131 28.3647 3.75553 27.6943 4.18521 27.1787C4.58052 26.7061 5.08755 26.5686 5.61177 26.792ZM5.61177 31.9482C5.9813 32.0943 6.34224 32.5326 6.41099 32.9021C6.48833 33.3318 6.37661 33.6842 6.06724 34.0107C5.57739 34.5349 4.73521 34.5349 4.24537 34.0107C3.78131 33.5209 3.75553 32.8506 4.18521 32.335C4.58052 31.8623 5.08755 31.7248 5.61177 31.9482Z" fill="#3679FF"/>
<path d="M12.8906 28.6053V42.9998H26.8382C42.0749 42.9998 41.2671 43.0256 42.2124 42.5099C42.7108 42.2349 43.3124 41.6162 43.5788 41.1006C44.0171 40.2412 43.9999 40.7568 43.9999 27.0327V14.2108H28.4453H12.8906V28.6053ZM34.1859 18.671C34.5898 18.8858 38.2851 22.5983 38.4054 22.9163C38.5687 23.3459 38.5171 23.7756 38.2593 24.1881C38.1218 24.3944 37.1679 25.3827 36.1452 26.3881C33.4468 29.0264 33.7046 29.0264 31.032 26.3795C28.832 24.1967 28.7031 24.042 28.7031 23.4749C28.7031 23.2428 28.7546 22.9506 28.8234 22.8217C28.9953 22.5038 32.7249 18.8171 33.0429 18.6452C33.3952 18.4647 33.7991 18.4733 34.1859 18.671ZM25.4976 20.7077C25.6265 20.8108 25.8156 21.0171 25.9101 21.1803C26.0734 21.4553 26.082 21.6272 26.082 24.4116C26.082 27.2561 26.0734 27.3506 25.9015 27.5912C25.807 27.7202 25.5921 27.9178 25.4375 28.0209C25.1539 28.2186 25.1195 28.2186 22.2664 28.2186C19.0437 28.2186 18.975 28.21 18.5883 27.6256C18.3906 27.3334 18.3906 27.3077 18.3906 24.3514C18.3906 21.4038 18.3906 21.3694 18.5883 21.0858C18.6914 20.9311 18.9148 20.7335 19.0781 20.6389C19.3617 20.4928 19.5851 20.4842 22.3179 20.5014C25.1453 20.5272 25.2656 20.5358 25.4976 20.7077ZM25.4375 31.1576C25.5921 31.2694 25.807 31.467 25.9015 31.5959C26.0734 31.8365 26.082 31.9311 26.082 34.7756C26.082 37.56 26.0734 37.7318 25.9101 38.0068C25.8156 38.1701 25.6265 38.3764 25.4976 38.4795C25.2656 38.6514 25.1453 38.66 22.3781 38.6857C19.6711 38.7115 19.482 38.7029 19.1211 38.5396C18.889 38.4365 18.6742 38.2561 18.5625 38.0842C18.3992 37.8178 18.3906 37.6631 18.3906 34.8358C18.3906 32.0256 18.3992 31.8537 18.5625 31.5873C18.657 31.4326 18.8547 31.235 19.0094 31.1405C19.2758 30.9772 19.4476 30.9686 22.2234 30.9686C25.1195 30.9686 25.1539 30.9686 25.4375 31.1576ZM35.6038 31.0631C36.0163 31.278 36.2569 31.5959 36.3515 32.0514C36.4116 32.3522 36.4374 33.435 36.4202 35.1108C36.3944 37.9982 36.3773 38.0584 35.8187 38.4623L35.5351 38.66H32.5273H29.5195L29.2359 38.4623C28.7031 38.0756 28.7031 38.067 28.7031 34.8186C28.7031 32.0256 28.7117 31.8537 28.8749 31.5873C28.9695 31.4326 29.1671 31.235 29.3218 31.1405C29.5882 30.9772 29.7601 30.9686 32.5101 30.9686C34.4952 30.9686 35.4749 31.003 35.6038 31.0631Z" fill="#3679FF"/>
<path d="M32.6734 22.5725L31.7969 23.4491L32.6992 24.3514L33.6016 25.2538L34.5039 24.3514L35.4062 23.4491L34.5297 22.5725C34.0398 22.0827 33.6273 21.6874 33.6016 21.6874C33.5758 21.6874 33.1633 22.0827 32.6734 22.5725Z" fill="#3679FF"/>
<path d="M20.9688 24.3514V25.6405H22.2578H23.5469V24.3514V23.0624H22.2578H20.9688V24.3514Z" fill="#3679FF"/>
<path d="M20.9688 34.8357V36.1248H22.2578H23.5469V34.8357V33.5466H22.2578H20.9688V34.8357Z" fill="#3679FF"/>
<path d="M31.2812 34.8358V36.1334L32.5531 36.1076L33.8164 36.0819L33.8422 34.81L33.868 33.5467H32.5703H31.2812V34.8358Z" fill="#3679FF"/>
</svg>
