<svg width="44" height="44" viewBox="0 0 44 44" fill="none" xmlns="http://www.w3.org/2000/svg">
<path d="M19.7191 3.57395C19.418 3.64278 18.9791 3.79766 18.7296 3.93533C18.1445 4.24508 17.3444 5.04526 17.069 5.58732C16.6044 6.51657 16.5958 6.59401 16.5958 12.0232V17.0394L18.1531 17.8224C19.0136 18.244 19.7191 18.5882 19.7363 18.571C19.7449 18.5538 20.1493 17.7622 20.6397 16.8071C21.569 14.9658 21.939 14.4324 22.6875 13.9419C23.7114 13.2622 25.1999 13.1504 26.3443 13.6666C28.0479 14.441 28.9771 16.3253 28.5125 18.0891C28.4437 18.3645 27.7295 19.896 26.9208 21.5136L25.4581 24.439V25.0585C25.4581 25.4026 25.4064 25.9275 25.3462 26.22L25.2343 26.7535L26.1464 26.7793L27.067 26.8051L24.6751 33.3873C23.35 37.0096 22.2315 40.1243 22.1799 40.305C21.8271 41.587 23.3845 42.5163 24.2965 41.5612C24.4858 41.3633 25.0795 39.8232 27.1789 34.0584L29.8117 26.8051L30.285 26.7793L30.7496 26.7621L33.3653 33.9207C34.8107 37.8614 36.0497 41.1826 36.1186 41.3031C36.6176 42.1033 37.6415 42.1721 38.218 41.4494C38.6998 40.8643 38.7428 41.0192 36.0153 33.6196C34.6559 29.9284 33.5459 26.8826 33.5459 26.8481C33.5459 26.8051 35.1807 26.7535 37.1855 26.7363C40.2572 26.7105 40.8767 26.6847 41.2208 26.5642C42.4942 26.134 43.5353 25.0413 43.8795 23.7937C43.9828 23.4409 44 21.8922 44 15.1035C44 8.31483 43.9828 6.76609 43.8795 6.41332C43.5353 5.16572 42.5028 4.0902 41.2208 3.63418C40.8509 3.50512 39.8958 3.48791 30.5345 3.4707C22.1024 3.4621 20.1579 3.47931 19.7191 3.57395ZM37.8738 9.15804C38.4933 9.57964 38.674 10.3368 38.2954 10.9477C37.9168 11.5672 38.3298 11.5328 30.328 11.5328C22.4552 11.5328 22.7391 11.55 22.3692 11.0251C21.8615 10.3196 22.2057 9.2871 23.0145 9.03758C23.1521 8.99456 26.4992 8.96875 30.4485 8.97735C37.3232 8.99456 37.6415 9.00316 37.8738 9.15804ZM37.9168 14.028C38.2094 14.2087 38.5363 14.7765 38.5363 15.1035C38.5363 15.4305 38.2094 15.9983 37.9168 16.179C37.6415 16.3425 37.4866 16.3511 34.3375 16.3511C31.3433 16.3511 31.0077 16.3339 30.7754 16.1962C29.9838 15.7316 29.9752 14.5356 30.7582 14.0194C30.9905 13.8645 31.2056 13.8559 34.3203 13.8559C37.4952 13.8559 37.6415 13.8645 37.9168 14.028ZM37.8136 18.8119C38.218 19.0012 38.4847 19.4658 38.4847 19.982C38.4847 20.309 38.4331 20.4553 38.218 20.7134C38.0803 20.8941 37.8308 21.0834 37.6673 21.1436C37.4608 21.2124 36.4541 21.2468 34.3203 21.2468C31.3089 21.2555 31.2486 21.2555 30.8787 21.0576C30.4054 20.8252 30.1731 20.4467 30.1731 19.9132C30.1731 19.4572 30.3452 19.1733 30.7926 18.8635C31.0766 18.6742 31.1024 18.6742 34.2945 18.6742C37.0822 18.6742 37.5641 18.6914 37.8136 18.8119Z" fill="#3679FF"/>
<path d="M7.21732 6.11215C6.04716 6.32725 5.12651 6.82629 4.24889 7.70391C3.50894 8.44387 3.14756 9.02895 2.82061 10.027C2.64852 10.5261 2.61411 10.81 2.62271 11.6618C2.62271 12.5653 2.64852 12.7804 2.86363 13.3826C3.37988 14.8798 4.36075 16.0069 5.69439 16.6436C6.47736 17.0136 7.06245 17.2029 7.53567 17.2201C7.66473 17.2287 7.46684 17.2803 7.09686 17.3491C4.32633 17.8138 2.1839 19.3281 0.944905 21.6942C0.703989 22.1417 0.402845 22.8816 0.282387 23.329C0.0500751 24.1206 0.0500751 24.198 0.0156586 27.0202C-0.018758 29.4552 -0.0015497 29.9972 0.118908 30.5049C0.394241 31.6836 1.20303 32.7247 2.25273 33.241L2.73457 33.4733L2.76038 37.2935C2.78619 41.0019 2.79479 41.1224 2.96688 41.3547C3.06152 41.4838 3.25081 41.673 3.37988 41.7677C3.61219 41.9398 3.72404 41.9484 8.06052 41.9742L12.5089 42L12.896 41.8021C13.1198 41.6816 13.3521 41.4838 13.4553 41.3031C13.6274 41.0105 13.6274 40.847 13.6532 33.6196C13.6618 29.567 13.6962 26.2458 13.7134 26.2458C13.7393 26.2458 14.6599 26.6932 15.7612 27.2439C18.1876 28.4657 18.5059 28.5775 19.3491 28.5775C20.373 28.5689 21.1388 28.2506 21.8443 27.5364C22.6703 26.7191 23.0661 25.4112 22.7908 24.4562C22.7134 24.1808 22.8166 23.9571 24.3826 20.8166C26.1808 17.2287 26.2239 17.0996 25.8883 16.5404C25.6474 16.1532 25.2344 15.9209 24.7612 15.9209C23.9954 15.9209 23.9352 15.9983 22.3606 19.1216C21.5776 20.6617 20.9151 21.9524 20.8893 21.9868C20.8549 22.0126 18.9189 21.0833 16.5872 19.9218C11.7947 17.547 11.4075 17.4008 9.79856 17.3147L8.80908 17.2717L9.4544 17.1082C10.6934 16.8071 11.7431 16.1532 12.5347 15.1809C13.0165 14.5958 13.2746 14.1226 13.5414 13.2966C13.8339 12.4362 13.8683 11.1284 13.636 10.2421C12.9821 7.83297 10.8999 6.16377 8.4219 6.06913C7.97448 6.05192 7.43242 6.06913 7.21732 6.11215Z" fill="#3679FF"/>
</svg>
