<svg width="150" height="52" viewBox="0 0 150 52" fill="none" xmlns="http://www.w3.org/2000/svg">
<g clip-path="url(#clip0_1_507)">
<path d="M147.04 5.53671C148.387 5.53671 149.491 4.45181 149.491 3.08635C149.491 1.68347 148.387 0.635986 147.04 0.635986C145.694 0.635986 144.59 1.70217 144.59 3.08635C144.59 4.43311 145.694 5.53671 147.04 5.53671ZM147.04 1.10361C148.125 1.10361 148.986 1.94534 148.986 3.06764C148.986 4.17124 148.125 5.05038 147.04 5.05038C145.937 5.05038 145.076 4.17124 145.076 3.06764C145.076 1.96404 145.937 1.10361 147.04 1.10361Z" fill="#264285"/>
<path d="M146.554 4.35833V3.34826H147.171L147.676 4.35833H148.2L147.639 3.25473C147.901 3.1238 148.088 2.89934 148.088 2.52524C148.088 2.0015 147.714 1.73962 147.283 1.73962H146.479C146.217 1.73962 146.086 1.87056 146.086 2.09502V4.33963H146.554V4.35833ZM146.573 2.15114H147.246C147.452 2.15114 147.601 2.28207 147.601 2.52524C147.601 2.7684 147.433 2.91804 147.209 2.91804H146.554V2.15114H146.573Z" fill="#264285"/>
<path d="M54.7309 5.48051C59.8748 5.48051 60.5108 10.774 60.5108 10.774L66.6273 9.33375C66.5899 9.18411 65.5237 0.0373535 54.7309 0.0373535C48.0532 0.0373535 41.8058 4.11505 41.8058 14.5338C41.8058 24.8776 48.3712 28.8431 55.1799 28.8431C59.8187 28.8431 63.0734 27.2906 64.2144 26.6546C65.6921 25.7942 66.5151 24.9525 66.5151 23.1755V16.7971C66.5151 15.1323 65.4115 14.1222 63.6158 14.1222H55.236V18.8359H60.4921V22.5021C60.4921 22.5021 58.6403 23.7553 55.3856 23.7553C51.9439 23.7553 48.3525 21.6791 48.3525 14.5338C48.3525 7.55678 51.4763 5.48051 54.7309 5.48051Z" fill="#264285"/>
<path d="M81.9281 0C79.3655 0 77.8129 1.1036 77.0647 3.36691L68.7597 28.4878H75.3252C75.7928 28.4878 76.3352 28.2072 76.6532 27.8892L84.5655 20.0705C84.7338 19.9022 84.6777 19.8273 84.4906 19.8273H83.4245C82.9755 19.8273 82.564 19.9396 82.1712 20.164L76.859 23.2129L81.9093 6.15396C81.9093 6.15396 87.9137 26.8043 88.4 28.4691H95.1525L86.9597 3.31079C86.2676 1.21583 84.528 0 81.9281 0Z" fill="#264285"/>
<path d="M109.088 5.4057C114.232 5.4057 114.905 11.0733 114.905 11.0733L121.022 9.78267C121.022 9.78267 120.105 0.0373535 109.088 0.0373535C102.41 0.0373535 96.1626 4.00282 96.1626 14.4215C96.1626 24.7654 102.354 28.8805 109.05 28.8805C119.843 28.8805 121.022 19.3597 121.022 19.3597L114.905 18.0316C114.905 18.0316 114.419 23.5122 109.163 23.5122C105.908 23.5122 102.747 21.4359 102.747 14.4028C102.728 7.44455 105.833 5.4057 109.088 5.4057Z" fill="#264285"/>
<path d="M135.743 0C133.18 0 131.627 1.1036 130.86 3.36691L122.555 28.4878H129.121C129.589 28.4878 130.131 28.2072 130.449 27.8892L138.361 20.0705C138.53 19.9022 138.473 19.8273 138.286 19.8273H137.22C136.771 19.8273 136.341 19.9396 135.967 20.164L130.655 23.2129L135.705 6.15396C135.705 6.15396 141.709 26.8043 142.196 28.4691H148.967L140.774 3.31079C140.082 1.21583 138.361 0 135.743 0Z" fill="#264285"/>
<path d="M39.7482 28.5626C39.8417 28.5626 39.9165 28.469 39.9165 28.3568C39.9165 28.2633 39.8791 28.1885 39.823 28.1511C36.5122 27.0662 33.9309 24.2604 33.3511 20.1266L31.7986 9.07192C31.0691 3.92804 27.2907 0.430195 22.8763 0.33667H0.20576C0.112235 0.33667 0.0374146 0.411495 0.0374146 0.50502C0.0374146 0.598545 0.0748246 0.69207 0.13094 0.69207C3.44173 1.77696 6.02303 4.60142 6.60288 8.75394L8.1554 19.8086C8.8849 24.9338 12.6633 28.4503 17.0777 28.5626H39.7482Z" fill="#2980C3"/>
<path d="M26.0561 18.9669H25.0273C24.9151 18.9669 24.7094 18.9856 24.5971 19.0417L12.2144 23.7554C12.1209 23.7928 12.1209 23.8302 12.2331 23.8302H16.2734C16.7597 23.8302 17.0777 23.8302 17.5827 23.5684L26.0748 19.0604C26.1683 19.0043 26.1683 18.9669 26.0561 18.9669Z" fill="white"/>
<path d="M17.6014 18.9669L20.0705 19.9396L18.7799 20.4259L16.105 19.0043C16.0115 18.9482 16.0115 18.9108 16.1237 18.9108H17.1525C17.3022 18.8921 17.4892 18.9108 17.6014 18.9669Z" fill="white"/>
<path d="M30.0777 23.8302H26.0374C25.5511 23.8302 25.2331 23.8302 24.7281 23.5683L21.9597 22.1093L23.5496 21.2676L30.0777 23.7553C30.1899 23.7928 30.1899 23.8302 30.0777 23.8302Z" fill="white"/>
<path d="M21.1554 18.331C20.7065 18.331 20.2763 14.777 20.1827 10.213C19.9583 10.2691 19.7151 10.3439 19.5281 10.4001C18.2187 10.8303 16.5353 11.5598 15.5065 12.177C15.4878 12.1957 15.4504 12.1957 15.4317 12.1583C15.4317 12.1396 15.413 12.1396 15.413 12.1209C15.3568 11.6346 15.4317 11.167 15.8058 10.7929C16.1799 10.4188 16.6662 10.1008 17.1151 9.8015C17.6763 9.4461 18.2561 9.10942 18.8734 8.82884C19.0417 8.75402 19.2288 8.66049 19.3971 8.58567C18.3683 7.98711 17.1151 7.50078 16.2173 7.2015C16.1986 7.2015 16.1799 7.16409 16.1799 7.14539C16.1799 7.12668 16.1799 7.12668 16.1986 7.12668C16.4791 6.8461 16.8158 6.65905 17.2273 6.69646C17.5827 6.73387 17.9381 6.8274 18.2935 6.90222C18.6863 6.99574 19.0604 7.10798 19.4532 7.23891C19.6777 7.31373 19.8835 7.38855 20.1079 7.46337C20.1453 7.48207 20.1827 7.48208 20.2201 7.50078C20.3511 6.26625 20.7252 5.36841 21.1741 5.36841C21.623 5.36841 21.9971 6.26625 22.1281 7.50078C22.1655 7.48208 22.2029 7.46337 22.2403 7.46337C22.446 7.38855 22.6705 7.29503 22.895 7.23891C23.2691 7.10798 23.6619 7.01445 24.0547 6.90222C24.4101 6.80869 24.7655 6.71517 25.1209 6.69646C25.5324 6.65905 25.8691 6.8461 26.1496 7.12668L26.1683 7.14539C26.1683 7.16409 26.1683 7.2015 26.1309 7.2015C25.2331 7.50078 23.9799 7.98711 22.9511 8.58567C23.1194 8.66049 23.3065 8.73531 23.4748 8.82884C24.0921 9.10942 24.6719 9.4461 25.2331 9.8015C25.682 10.0821 26.1496 10.4188 26.5424 10.7929C26.9165 11.1483 26.9914 11.6159 26.9353 12.1209C26.9353 12.1396 26.9353 12.1396 26.9165 12.1583C26.8978 12.177 26.8604 12.1957 26.8417 12.177C25.813 11.5598 24.1295 10.8303 22.8201 10.4001C22.6518 10.3439 22.4086 10.2691 22.1655 10.213C22.0345 14.777 21.6043 18.331 21.1554 18.331Z" fill="white"/>
<path d="M42.7036 47.8474C42.7036 46.2388 43.5453 45.1539 44.8547 45.1539C45.7151 45.1539 46.2202 45.659 46.5194 46.2575L45.8087 46.5755C45.6216 46.2014 45.3036 45.9021 44.8547 45.9021C44.1065 45.9021 43.6015 46.6503 43.6015 47.8287C43.6015 49.0072 44.1065 49.7554 44.8547 49.7554C45.2475 49.7554 45.5655 49.5683 45.7338 49.3813V48.446H44.6302V47.6978H46.5569V49.7554C46.1453 50.2417 45.5842 50.5597 44.8547 50.5597C43.564 50.5597 42.7036 49.4561 42.7036 47.8474Z" fill="#58595B"/>
<path d="M47.3611 48.5583C47.3611 47.4734 47.9784 46.5756 48.9885 46.5756C50.0173 46.5756 50.5784 47.436 50.5784 48.577V48.8015H48.1655C48.2029 49.4187 48.5396 49.8864 49.1568 49.8864C49.4561 49.8864 49.7928 49.7367 50.0173 49.4748L50.3914 49.9425C50.0734 50.3166 49.587 50.5223 49.082 50.5223C48.0345 50.541 47.3611 49.7367 47.3611 48.5583ZM48.9885 47.2115C48.3899 47.2115 48.1842 47.8101 48.1468 48.259H49.8115C49.8115 47.7914 49.6057 47.2115 48.9885 47.2115Z" fill="#58595B"/>
<path d="M53.5525 50.4474V47.8849C53.5525 47.4359 53.3468 47.2863 53.0101 47.2863C52.6734 47.2863 52.3741 47.5482 52.2432 47.81V50.4661H51.4576V46.7064H52.2432V47.2115C52.4489 46.9122 52.8791 46.6129 53.3468 46.6129C54.0388 46.6129 54.3381 46.987 54.3381 47.6417V50.4849H53.5525V50.4474Z" fill="#58595B"/>
<path d="M55.236 48.5583C55.236 47.4734 55.8532 46.5756 56.8633 46.5756C57.8921 46.5756 58.4532 47.436 58.4532 48.577V48.8015H56.0403C56.0777 49.4187 56.4144 49.8864 57.0316 49.8864C57.3309 49.8864 57.6676 49.7367 57.8921 49.4748L58.2662 49.9425C57.9482 50.3166 57.4619 50.5223 56.9568 50.5223C55.8906 50.541 55.236 49.7367 55.236 48.5583ZM56.8633 47.2115C56.2647 47.2115 56.059 47.8101 56.0216 48.259H57.6863C57.6863 47.7914 57.4619 47.2115 56.8633 47.2115Z" fill="#58595B"/>
<path d="M59.3137 50.4474V46.6877H60.0993V47.2489C60.3238 46.8935 60.7166 46.6129 61.1468 46.6129V47.3798C61.0907 47.3611 61.0158 47.3611 60.941 47.3611C60.623 47.3611 60.2489 47.6043 60.0993 47.8849V50.4661H59.3137V50.4474Z" fill="#58595B"/>
<path d="M63.8777 50.4474V50.0733C63.6532 50.3913 63.2604 50.541 62.8676 50.541C62.2504 50.541 61.7079 50.092 61.7079 49.2877C61.7079 48.4834 62.2504 48.0719 62.8676 48.0719C63.2604 48.0719 63.6532 48.2216 63.8777 48.5208V47.9784C63.8777 47.5295 63.6158 47.2676 63.1295 47.2676C62.7928 47.2676 62.4748 47.3985 62.1755 47.6978L61.8763 47.1554C62.2691 46.7813 62.7741 46.6129 63.2604 46.6129C64.0648 46.6129 64.6446 46.987 64.6446 47.9036V50.4849H63.8777V50.4474ZM63.8777 49.587V49.0259C63.7281 48.764 63.4475 48.6144 63.1669 48.6144C62.7554 48.6144 62.5122 48.9136 62.5122 49.3064C62.5122 49.7179 62.7554 50.0172 63.1669 50.0172C63.4288 49.9985 63.7281 49.8489 63.8777 49.587Z" fill="#58595B"/>
<path d="M66.5151 45.2474H65.7295V50.4474H66.5151V45.2474Z" fill="#58595B"/>
<path d="M72.2201 50.4474L71.9396 49.4187H70.2187L69.9381 50.4474H68.9842L70.5554 45.2474H71.6029L73.1741 50.4474H72.2201ZM71.0791 46.164L70.387 48.6517H71.7525L71.0791 46.164Z" fill="#58595B"/>
<path d="M75.8676 50.4475V49.9424C75.6619 50.2604 75.2504 50.541 74.764 50.541C74.0907 50.541 73.7727 50.1856 73.7727 49.5309V46.6877H74.5583V49.269C74.5583 49.6993 74.764 49.8676 75.1007 49.8676C75.4374 49.8676 75.718 49.6244 75.8676 49.3626V46.7065H76.6532V50.4662H75.8676V50.4475Z" fill="#58595B"/>
<path d="M77.8878 49.6057V47.3611H77.3828V46.6877H77.8878V45.6589H78.6734V46.6877H79.3094V47.3611H78.6734V49.4374C78.6734 49.6992 78.7669 49.8489 78.9727 49.8489C79.1036 49.8489 79.2158 49.7928 79.272 49.7179L79.459 50.2978C79.3094 50.4287 79.1036 50.5222 78.7669 50.5222C78.1684 50.5409 77.8878 50.223 77.8878 49.6057Z" fill="#58595B"/>
<path d="M82.2463 50.4476V47.8663C82.2463 47.436 82.0405 47.2677 81.6851 47.2677C81.3485 47.2677 81.0679 47.5296 80.9182 47.7914V50.4476H80.1326V45.2476H80.9182V47.1929C81.124 46.8936 81.5542 46.5943 82.0218 46.5943C82.6952 46.5943 83.0132 46.9497 83.0132 47.6044V50.4476H82.2463Z" fill="#58595B"/>
<path d="M83.9108 48.5583C83.9108 47.4921 84.472 46.5756 85.5568 46.5756C86.6417 46.5756 87.2029 47.4921 87.2029 48.5583C87.2029 49.6245 86.6417 50.541 85.5568 50.541C84.4907 50.541 83.9108 49.6245 83.9108 48.5583ZM86.3986 48.5583C86.3986 47.8849 86.1367 47.2677 85.5568 47.2677C84.977 47.2677 84.7151 47.8662 84.7151 48.5583C84.7151 49.2317 84.977 49.8489 85.5568 49.8489C86.1367 49.8489 86.3986 49.2504 86.3986 48.5583Z" fill="#58595B"/>
<path d="M88.1007 50.4474V46.6877H88.8863V47.2489C89.1108 46.8935 89.5036 46.6129 89.9338 46.6129V47.3798C89.8777 47.3611 89.8029 47.3611 89.728 47.3611C89.4101 47.3611 89.036 47.6043 88.8863 47.8849V50.4661H88.1007V50.4474Z" fill="#58595B"/>
<path d="M90.5885 45.7151C90.5885 45.4345 90.813 45.2288 91.0935 45.2288C91.3554 45.2288 91.5799 45.4532 91.5799 45.7151C91.5799 45.977 91.3554 46.2014 91.0935 46.2014C90.813 46.2014 90.5885 45.9957 90.5885 45.7151ZM90.682 46.6878H91.4676V50.4475H90.682V46.6878Z" fill="#58595B"/>
<path d="M92.7021 49.6057V47.3611H92.2158V46.6877H92.7209V45.6589H93.5065V46.6877H94.1424V47.3611H93.5065V49.4374C93.5065 49.6992 93.6 49.8489 93.8057 49.8489C93.9367 49.8489 94.0489 49.7928 94.105 49.7179L94.2921 50.2978C94.1424 50.4287 93.9367 50.5222 93.6 50.5222C92.9827 50.5409 92.7021 50.223 92.7021 49.6057Z" fill="#58595B"/>
<path d="M94.9281 51.2331C95.0029 51.2705 95.1151 51.2892 95.1712 51.2892C95.377 51.2892 95.5266 51.2144 95.6014 50.9712L95.7511 50.5223L94.4791 46.6877H95.3209L96.1626 49.5122L97.023 46.6877H97.8647L96.3683 51.1583C96.1626 51.7942 95.7885 51.9813 95.246 51.9813C95.1338 51.9813 94.9281 51.9626 94.8158 51.9252L94.9281 51.2331Z" fill="#58595B"/>
<path d="M100.128 48.5583C100.128 47.4921 100.689 46.5756 101.774 46.5756C102.859 46.5756 103.42 47.4921 103.42 48.5583C103.42 49.6245 102.859 50.541 101.774 50.541C100.708 50.541 100.128 49.6245 100.128 48.5583ZM102.616 48.5583C102.616 47.8849 102.354 47.2677 101.774 47.2677C101.194 47.2677 100.932 47.8662 100.932 48.5583C100.932 49.2317 101.194 49.8489 101.774 49.8489C102.354 49.8489 102.616 49.2504 102.616 48.5583Z" fill="#58595B"/>
<path d="M104.486 50.4474V47.3611H104V46.6877H104.486V46.3323C104.486 45.6028 104.898 45.1726 105.553 45.1726C105.833 45.1726 106.114 45.2474 106.319 45.4345L106.058 45.9769C105.945 45.8834 105.852 45.8273 105.702 45.8273C105.422 45.8273 105.272 46.0143 105.272 46.3323V46.6877H105.908V47.3611H105.272V50.4474H104.486Z" fill="#58595B"/>
<path d="M108.321 47.8473C108.321 46.2761 109.144 45.1538 110.472 45.1538C111.389 45.1538 111.856 45.715 112.137 46.2948L111.407 46.6128C111.22 46.2013 110.902 45.9207 110.472 45.9207C109.705 45.9207 109.219 46.725 109.219 47.8473C109.219 48.9509 109.705 49.7739 110.472 49.7739C110.921 49.7739 111.258 49.4373 111.407 49.007L112.137 49.325C111.875 49.9236 111.389 50.5409 110.472 50.5409C109.144 50.5409 108.321 49.4186 108.321 47.8473Z" fill="#58595B"/>
<path d="M112.829 45.7151C112.829 45.4345 113.053 45.2288 113.334 45.2288C113.596 45.2288 113.82 45.4532 113.82 45.7151C113.82 45.977 113.596 46.2014 113.334 46.2014C113.053 46.2014 112.829 45.9957 112.829 45.7151ZM112.941 46.6878H113.727V50.4475H112.941V46.6878Z" fill="#58595B"/>
<path d="M115.616 50.4475L114.363 46.6877H115.204L116.046 49.5309L116.888 46.6877H117.73L116.458 50.4475H115.616Z" fill="#58595B"/>
<path d="M118.253 45.7151C118.253 45.4345 118.478 45.2288 118.758 45.2288C119.02 45.2288 119.245 45.4532 119.245 45.7151C119.245 45.977 119.02 46.2014 118.758 46.2014C118.478 46.2014 118.253 45.9957 118.253 45.7151ZM118.347 46.6878H119.132V50.4475H118.347V46.6878Z" fill="#58595B"/>
<path d="M121.022 45.2474H120.236V50.4474H121.022V45.2474Z" fill="#58595B"/>
<path d="M126.727 50.4474L126.446 49.4187H124.725L124.445 50.4474H123.509L125.081 45.2474H126.128L127.699 50.4474H126.727ZM125.567 46.164L124.875 48.6517H126.24L125.567 46.164Z" fill="#58595B"/>
<path d="M128.99 50.4475L127.737 46.6877H128.578L129.42 49.5309L130.262 46.6877H131.104L129.85 50.4475H128.99Z" fill="#58595B"/>
<path d="M131.627 45.7151C131.627 45.4345 131.852 45.2288 132.132 45.2288C132.394 45.2288 132.619 45.4532 132.619 45.7151C132.619 45.977 132.394 46.2014 132.132 46.2014C131.871 46.2014 131.627 45.9957 131.627 45.7151ZM131.74 46.6878H132.525V50.4475H131.74V46.6878Z" fill="#58595B"/>
<path d="M135.574 50.4474V50.0733C135.35 50.3913 134.957 50.541 134.564 50.541C133.947 50.541 133.404 50.092 133.404 49.2877C133.404 48.4834 133.966 48.0719 134.564 48.0719C134.957 48.0719 135.35 48.2216 135.574 48.5208V47.9784C135.574 47.5295 135.312 47.2676 134.826 47.2676C134.489 47.2676 134.171 47.3985 133.872 47.6978L133.573 47.1554C133.966 46.7813 134.471 46.6129 134.976 46.6129C135.78 46.6129 136.36 46.987 136.36 47.9036V50.4849H135.574V50.4474ZM135.574 49.587V49.0259C135.424 48.764 135.144 48.6144 134.863 48.6144C134.452 48.6144 134.209 48.9136 134.209 49.3064C134.209 49.7179 134.452 50.0172 134.863 50.0172C135.144 49.9985 135.424 49.8489 135.574 49.587Z" fill="#58595B"/>
<path d="M137.594 49.6057V47.3611H137.108V46.6877H137.594V45.6589H138.38V46.6877H139.016V47.3611H138.38V49.4374C138.38 49.6992 138.473 49.8489 138.679 49.8489C138.81 49.8489 138.922 49.7928 138.978 49.7179L139.165 50.2978C139.016 50.4287 138.81 50.5222 138.473 50.5222C137.875 50.5409 137.594 50.223 137.594 49.6057Z" fill="#58595B"/>
<path d="M139.726 45.7153C139.726 45.4348 139.951 45.229 140.213 45.229C140.475 45.229 140.699 45.4535 140.699 45.7153C140.699 45.9772 140.475 46.2017 140.213 46.2017C139.97 46.2017 139.726 45.9959 139.726 45.7153ZM139.839 46.688H140.624V50.4477H139.839V46.688Z" fill="#58595B"/>
<path d="M141.522 48.5583C141.522 47.4921 142.083 46.5756 143.168 46.5756C144.253 46.5756 144.814 47.4921 144.814 48.5583C144.814 49.6245 144.253 50.541 143.168 50.541C142.083 50.541 141.522 49.6245 141.522 48.5583ZM143.991 48.5583C143.991 47.8849 143.73 47.2677 143.15 47.2677C142.57 47.2677 142.308 47.8662 142.308 48.5583C142.308 49.2317 142.57 49.8489 143.15 49.8489C143.748 49.8489 143.991 49.2504 143.991 48.5583Z" fill="#58595B"/>
<path d="M147.807 50.4474V47.8849C147.807 47.4359 147.601 47.2863 147.265 47.2863C146.928 47.2863 146.629 47.5482 146.498 47.81V50.4661H145.712V46.7064H146.498V47.2115C146.704 46.9122 147.134 46.6129 147.601 46.6129C148.294 46.6129 148.593 46.987 148.593 47.6417V50.4849H147.807V50.4474Z" fill="#58595B"/>
<path d="M98.6317 36.0072C98.8935 36.0072 99.0993 35.8014 99.0993 35.5395C99.0993 35.2777 98.8935 35.0719 98.6317 35.0719C98.3698 35.0719 98.164 35.2777 98.164 35.5395C98.164 35.8014 98.3698 36.0072 98.6317 36.0072Z" fill="#58595B"/>
<path d="M100.128 36.0072C100.39 36.0072 100.596 35.8014 100.596 35.5395C100.596 35.2777 100.39 35.0719 100.128 35.0719C99.8662 35.0719 99.6604 35.2777 99.6604 35.5395C99.6604 35.8014 99.8662 36.0072 100.128 36.0072Z" fill="#58595B"/>
<path d="M125.399 36.0072C125.66 36.0072 125.866 35.8014 125.866 35.5395C125.866 35.2777 125.66 35.0719 125.399 35.0719C125.137 35.0719 124.931 35.2777 124.931 35.5395C124.931 35.8014 125.137 36.0072 125.399 36.0072Z" fill="#58595B"/>
<path d="M126.895 36.0072C127.157 36.0072 127.363 35.8014 127.363 35.5395C127.363 35.2777 127.157 35.0719 126.895 35.0719C126.633 35.0719 126.427 35.2777 126.427 35.5395C126.427 35.8014 126.652 36.0072 126.895 36.0072Z" fill="#58595B"/>
<path d="M136.098 37.1293L136.023 36.5307C135.687 36.5868 134.938 36.8113 134.864 36.3062C134.826 36.0444 135.013 35.7825 135.275 35.7264C135.481 35.689 135.705 35.7638 135.892 35.8386L136.079 35.2588C135.649 35.1278 135.182 35.0717 134.807 35.3523C134.396 35.6329 134.246 36.2314 134.508 36.6616C134.134 36.6803 133.835 36.6803 133.835 36.6803V37.1293C134.284 37.148 134.714 37.1667 135.163 37.1667C135.238 37.1667 135.78 37.148 136.098 37.1293Z" fill="#58595B"/>
<path d="M79.9453 41.9554C79.6835 41.9554 79.4777 42.1612 79.4777 42.4231C79.4777 42.6849 79.6835 42.8907 79.9453 42.8907C80.2072 42.8907 80.413 42.6849 80.413 42.4231C80.413 42.1799 80.2072 41.9554 79.9453 41.9554Z" fill="#58595B"/>
<path d="M81.4417 41.9554C81.1799 41.9554 80.9741 42.1612 80.9741 42.4231C80.9741 42.6849 81.1799 42.8907 81.4417 42.8907C81.7036 42.8907 81.9094 42.6849 81.9094 42.4231C81.9094 42.1799 81.7036 41.9554 81.4417 41.9554Z" fill="#58595B"/>
<path d="M136.883 41.9554C136.622 41.9554 136.416 42.1612 136.416 42.4231C136.416 42.6849 136.622 42.8907 136.883 42.8907C137.145 42.8907 137.351 42.6849 137.351 42.4231C137.351 42.1799 137.145 41.9554 136.883 41.9554Z" fill="#58595B"/>
<path d="M138.38 41.9554C138.118 41.9554 137.912 42.1612 137.912 42.4231C137.912 42.6849 138.118 42.8907 138.38 42.8907C138.642 42.8907 138.847 42.6849 138.847 42.4231C138.847 42.1799 138.642 41.9554 138.38 41.9554Z" fill="#58595B"/>
<path d="M44.6863 43.0776C44.4245 43.0776 44.2187 43.2834 44.2187 43.5453C44.2187 43.8071 44.4245 44.0129 44.6863 44.0129C44.9482 44.0129 45.154 43.8071 45.154 43.5453C45.154 43.2834 44.9482 43.0776 44.6863 43.0776Z" fill="#58595B"/>
<path d="M46.1827 43.0776C45.9209 43.0776 45.7151 43.2834 45.7151 43.5453C45.7151 43.8071 45.9209 44.0129 46.1827 44.0129C46.4446 44.0129 46.6504 43.8071 46.6504 43.5453C46.6504 43.2834 46.4446 43.0776 46.1827 43.0776Z" fill="#58595B"/>
<path d="M71.0417 37.8403C71.3036 37.8403 71.5093 37.6345 71.5093 37.3727C71.5093 37.1108 71.3036 36.905 71.0417 36.905C70.7799 36.905 70.5741 37.1108 70.5741 37.3727C70.5741 37.6345 70.7799 37.8403 71.0417 37.8403Z" fill="#58595B"/>
<path d="M49.7741 36.9425C50.036 36.9425 50.2417 36.7367 50.2417 36.4748C50.2417 36.213 50.036 36.0072 49.7741 36.0072C49.5122 36.0072 49.3065 36.213 49.3065 36.4748C49.3065 36.7367 49.5122 36.9425 49.7741 36.9425Z" fill="#58595B"/>
<path d="M148.537 35.2777H147.732V41.0015H148.537V35.2777Z" fill="#58595B"/>
<path d="M121.433 35.2777H120.629V41.0015H121.433V35.2777Z" fill="#58595B"/>
<path d="M75.2317 35.2777H74.4273V41.0015H75.2317V35.2777Z" fill="#58595B"/>
<path d="M145.619 39.823C145.619 40.1222 145.376 40.3654 145.076 40.3654H142.832C142.85 40.3467 142.869 40.328 142.869 40.3093C143.037 40.0848 143.224 39.6733 143.056 39.0935C142.963 38.7381 142.645 37.6345 141.859 37.6158H141.84C140.924 37.6158 140.344 39.1683 140.25 39.4676C140.194 39.6546 140.101 39.9726 140.026 40.3467C139.671 40.3467 138.043 40.3467 138.043 40.3467C138.118 40.1784 138.155 39.9913 138.155 39.8043V37.8402H137.351V39.8043C137.351 40.1035 137.108 40.3467 136.809 40.3467H136.322C136.023 40.3467 135.78 40.1035 135.78 39.8043V37.8402H134.976V39.8043C134.976 40.1035 134.732 40.3467 134.433 40.3467H127.587C127.288 40.3467 127.045 40.1035 127.045 39.8043V36.8302H126.24V37.2043C126.016 37.2791 125.586 37.41 125.137 37.6158C124.183 38.046 123.659 38.5697 123.528 39.1496C123.472 39.4489 123.547 39.7107 123.734 39.9165C123.846 40.0474 124.276 40.3841 125.417 40.3841C125.679 40.3841 125.978 40.3654 126.334 40.328C126.54 40.8143 127.026 41.151 127.568 41.151H134.414C134.789 41.151 135.125 41.0014 135.368 40.7582C135.612 41.0014 135.948 41.151 136.322 41.151H136.809C137.164 41.151 137.501 41.0014 137.744 40.7769V41.151C137.744 41.151 139.671 41.151 139.97 41.151C139.989 41.8992 140.232 42.6474 141.073 43.0028C141.298 43.0963 141.541 43.1338 141.784 43.1338C142.42 43.1338 143.037 42.8345 143.281 42.3294C143.393 42.1237 143.505 41.6561 143.112 41.1323H145.076C145.824 41.1323 146.423 40.5338 146.423 39.7856V35.2402H145.619V39.823ZM124.332 39.4115C124.332 39.3928 124.314 39.3928 124.332 39.3553C124.426 38.869 125.417 38.364 126.24 38.1021V39.5798C125.455 39.6546 124.519 39.6172 124.332 39.4115ZM141.017 39.7481C141.298 38.9251 141.709 38.4388 141.84 38.4388C141.84 38.4388 142.046 38.5136 142.289 39.3179C142.364 39.5985 142.289 39.7481 142.233 39.823C142.009 40.1035 141.448 40.2532 140.849 40.3093C140.905 40.1409 140.961 39.9539 141.017 39.7481ZM142.57 42.0114C142.458 42.2546 141.878 42.4791 141.373 42.2733C140.961 42.105 140.755 41.7122 140.755 41.1323C141.186 41.0949 141.635 41.0201 142.009 40.8891L141.859 41.1697C142.383 41.4877 142.663 41.8057 142.57 42.0114Z" fill="#58595B"/>
<path d="M65.7295 35.2777H64.9252V41.0015H65.7295V35.2777Z" fill="#58595B"/>
<path d="M62.8302 39.8231C62.8302 40.1223 62.5871 40.3655 62.2878 40.3655H60.6979C60.7166 40.3281 60.7166 40.3094 60.7353 40.272C60.9784 39.6547 60.8288 38.9065 60.623 38.4763C60.3425 37.8777 59.8374 37.5223 59.295 37.5223C58.7525 37.5223 58.2475 37.8777 57.9482 38.495C57.7986 38.7943 57.705 39.0749 57.6115 39.3367C57.3684 40.0662 57.2561 40.3655 56.4518 40.3655H55.6849C55.4979 38.4202 53.7022 37.4662 53.6274 37.4101L53.2533 38.1209C53.272 38.1209 54.6935 38.8878 54.8806 40.3468H52.3741V41.1511H56.4705C57.0504 41.1511 57.4432 41.0015 57.705 40.777C58.0979 41.0389 58.6964 41.1511 59.2202 41.1511C59.5194 41.1511 59.7813 41.1137 59.9684 41.0389C60.0058 41.0202 60.0619 41.0015 60.0993 40.9828V41.1511H62.2878C63.036 41.1511 63.6345 40.5526 63.6345 39.8044V35.259H62.8302V39.8231ZM59.9871 39.9914C59.931 40.1598 59.8187 40.2533 59.6691 40.3094C59.3324 40.4403 58.472 40.3281 58.154 40.141C58.2288 39.954 58.3036 39.7669 58.3597 39.5799C58.4345 39.3367 58.5281 39.0936 58.6403 38.8504C58.8086 38.5324 59.0331 38.3267 59.2763 38.3267C59.5007 38.3267 59.7252 38.5137 59.8748 38.8317C60.0245 39.1497 60.118 39.636 59.9871 39.9914Z" fill="#58595B"/>
<path d="M107.105 37.541C106.544 37.541 106.039 37.8964 105.74 38.5136C105.59 38.8129 105.496 39.0935 105.422 39.3366C105.178 40.0661 105.066 40.3654 104.262 40.3654H100.989C100.689 40.3654 100.446 40.1223 100.446 39.823V36.8489H99.6417V37.223C99.4173 37.2978 98.9871 37.4287 98.5381 37.6345C97.5842 38.0647 97.0604 38.5884 96.9295 39.1683C96.8734 39.4676 96.9482 39.7295 97.1353 39.9352C97.2475 40.0661 97.6777 40.4028 98.8187 40.4028C99.0806 40.4028 99.3799 40.3841 99.7353 40.3467C99.941 40.8331 100.427 41.1697 100.97 41.1697H104.243C104.823 41.1697 105.216 41.0201 105.478 40.7956C106.076 41.1884 107.236 41.2633 107.741 41.0575C108.096 40.9266 108.377 40.646 108.508 40.2719C108.751 39.6546 108.601 38.9064 108.396 38.4762C108.153 37.8964 107.647 37.541 107.105 37.541ZM97.7338 39.4115C97.7338 39.4115 97.7151 39.3928 97.7338 39.3554C97.8274 38.869 98.8187 38.364 99.6417 38.1021V39.5798C98.8561 39.6546 97.9396 39.6172 97.7338 39.4115ZM107.797 39.9913C107.741 40.1597 107.629 40.2532 107.479 40.3093C107.142 40.4402 106.282 40.328 105.964 40.141C106.039 39.9539 106.114 39.7669 106.17 39.5798C106.245 39.3366 106.338 39.0935 106.45 38.8503C106.619 38.5323 106.843 38.3266 107.086 38.3266C107.311 38.3266 107.535 38.5136 107.685 38.8316C107.853 39.1496 107.947 39.6359 107.797 39.9913Z" fill="#58595B"/>
<path d="M93.7497 39.8231C93.7497 40.1223 93.5065 40.3655 93.2072 40.3655H92.7209C92.4216 40.3655 92.1784 40.1223 92.1784 39.8231V35.2777H91.3741V39.8231C91.3741 40.1223 91.1309 40.3655 90.8317 40.3655H89.672C89.6533 39.5612 89.5036 38.5698 88.8489 38.0087C88.082 37.3727 87.0346 37.7655 86.3051 38.2331C85.8748 38.495 85.482 38.8317 85.1079 39.1871V35.259H84.3036V40.3468H81.0115C81.0863 40.1785 81.1238 39.9914 81.1238 39.8044V37.8403H80.3194V39.8044C80.3194 40.1036 80.0763 40.3468 79.777 40.3468H78.0748C77.7756 40.3468 77.5324 40.1036 77.5324 39.8044V37.8403H76.6907V40.9641C76.6907 41.5813 76.1856 42.0864 75.5684 42.0864V42.8907C76.5971 42.8907 77.4576 42.0677 77.495 41.0389C77.6633 41.1137 77.8504 41.1511 78.0374 41.1511H79.7396C80.0202 41.1511 80.2633 41.0763 80.4691 40.9267V41.1511H90.7943C91.1684 41.1511 91.505 41.0015 91.7482 40.7583C91.9914 41.0015 92.3281 41.1511 92.7022 41.1511H93.1885C93.9367 41.1511 94.5353 40.5526 94.5353 39.8044V35.259H93.7309V39.8231H93.7497ZM85.0892 40.0849C85.4259 39.7669 85.7813 39.4677 86.1741 39.2058C86.6043 38.9065 87.0907 38.6072 87.6144 38.5324C87.8389 38.495 88.082 38.495 88.2504 38.6446C88.4187 38.7569 88.5122 38.9439 88.5871 39.1123C88.7554 39.5051 88.8115 39.954 88.8302 40.3842H85.0705V40.0849H85.0892Z" fill="#58595B"/>
<path d="M50.5971 39.823C50.5971 40.1223 50.354 40.3654 50.0547 40.3654H49.6993C49.3813 40.3654 49.1194 40.1223 49.1194 39.823V38.7568C49.1194 38.4201 48.9885 38.1396 48.7453 37.9525C48.4648 37.728 48.0907 37.6719 47.6792 37.7655C46.931 37.9338 46.3885 38.5698 46.3885 39.2619V41.0949C46.3885 41.3194 46.1828 41.4503 46.0144 41.5252C45.4907 41.7496 44.5741 41.6748 44.0317 41.1324C43.5079 40.6273 43.4331 39.823 43.8259 38.7942L43.0777 38.5137C42.3856 40.3093 43.0403 41.282 43.4705 41.7122C43.9943 42.2172 44.7238 42.4417 45.3597 42.4417C45.7151 42.4417 46.0518 42.3669 46.3324 42.2547C46.8748 42.0302 47.1928 41.6 47.1928 41.0949V39.2619C47.1928 38.9439 47.4734 38.6446 47.8662 38.5511C48.0533 38.5136 48.2029 38.5511 48.259 38.5885C48.2777 38.6072 48.3338 38.6446 48.3338 38.7755V39.8417C48.3338 40.5712 48.9698 41.1885 49.718 41.1885H50.0734C50.8216 41.1885 51.4202 40.5899 51.4202 39.8417V37.8777H50.6158V39.823H50.5971Z" fill="#58595B"/>
<path d="M72.4072 41.095C72.4072 41.3194 72.2014 41.4503 72.0331 41.5252C71.5093 41.7496 70.5928 41.6748 70.0316 41.1324C69.5079 40.6273 69.4331 39.823 69.8259 38.7942L69.0777 38.5137C68.3856 40.3093 69.0403 41.282 69.4705 41.7122C69.9942 42.2173 70.7237 42.4417 71.3597 42.4417C71.7151 42.4417 72.0518 42.3669 72.3324 42.2547C72.8748 42.0302 73.1928 41.6 73.1928 41.095V37.8777H72.3885V41.095H72.4072Z" fill="#58595B"/>
<path d="M118.515 39.8231C118.515 40.1223 118.272 40.3655 117.973 40.3655H117.673C116.888 40.3842 116.214 40.3094 115.672 40.1785C115.691 40.1598 115.709 40.141 115.728 40.1223C115.896 39.9727 116.757 39.2058 116.626 38.4202C116.588 38.1583 116.401 37.8216 115.859 37.6159L115.822 37.5972H115.784C115.073 37.5036 114.325 37.5036 113.614 37.5785H113.577L113.54 37.5972C113.091 37.7655 112.922 38.0461 112.885 38.2705C112.735 38.9626 113.446 39.7482 113.764 40.0662C113.82 40.1223 113.858 40.1598 113.914 40.1972C113.465 40.3094 112.978 40.3468 112.417 40.3468H111.239C110.94 40.3468 110.696 40.1036 110.696 39.8044V35.259H109.892V39.8044C109.892 40.5526 110.491 41.1511 111.239 41.1511H112.417C113.353 41.1511 114.101 41.0763 114.83 40.7209C115.578 41.0202 116.532 41.1511 117.711 41.1511H117.991C118.74 41.1511 119.338 40.5526 119.338 39.8044V35.259H118.534V39.8231H118.515ZM115.223 39.5238C115.073 39.6547 114.924 39.7669 114.774 39.8418C114.587 39.7482 114.437 39.636 114.306 39.5051C113.858 39.0562 113.614 38.6259 113.652 38.4576C113.652 38.4389 113.708 38.4015 113.745 38.3828C114.381 38.3267 114.999 38.3267 115.635 38.4015C115.728 38.4389 115.822 38.495 115.84 38.5698C115.878 38.7943 115.597 39.2058 115.223 39.5238Z" fill="#58595B"/>
</g>
<defs>
<clipPath id="clip0_1_507">
<rect width="149.266" height="52" fill="white"/>
</clipPath>
</defs>
</svg>
